<svg id="Group_7297" data-name="Group 7297" xmlns="http://www.w3.org/2000/svg" xmlns:xlink="http://www.w3.org/1999/xlink" width="104.193" height="104.195" viewBox="0 0 104.193 104.195">
  <defs>
    <clipPath id="clip-path">
      <rect id="Rectangle_824" data-name="Rectangle 824" width="104.193" height="104.195" fill="none"/>
    </clipPath>
  </defs>
  <g id="Group_6683" data-name="Group 6683" clip-path="url(#clip-path)">
    <path id="Path_4277" data-name="Path 4277" d="M70.122,69.207a1.226,1.226,0,0,1,1.295-1.242,1.2,1.2,0,0,1,1.281,1.19v.111a1.167,1.167,0,0,1-.513.986,1.138,1.138,0,0,1,.579,1.018v.179A1.276,1.276,0,0,1,71.4,72.7a1.261,1.261,0,0,1-1.346-1.269V71.2h.827v.144c0,.362.191.573.5.573s.5-.211.5-.573v-.177a.5.5,0,0,0-.525-.571H71v-.669h.355a.443.443,0,0,0,.46-.5v-.191c0-.309-.171-.5-.435-.5s-.433.191-.433.506v.118h-.828ZM63.27,68.032h1.012l.65,2.956.637-2.956h.644l.637,2.956.657-2.956h.953l-1.216,4.6h-.781l-.6-2.687-.6,2.687h-.775ZM56.39,69.707V72.63h-.854v-4.6h.907l1.334,2.8v-2.8h.846v4.6h-.846Zm-5.028,1.459c0,.447.236.7.611.7s.618-.256.618-.7V69.491c0-.441-.236-.7-.618-.7s-.611.262-.611.7Zm-.933-1.649a1.474,1.474,0,0,1,1.557-1.551A1.436,1.436,0,0,1,53.516,69.5v1.641A1.475,1.475,0,0,1,51.966,72.7a1.444,1.444,0,0,1-1.537-1.537Zm-4.039,2.293h.48c.441,0,.683-.27.683-.775V69.622c0-.5-.242-.769-.683-.769h-.48Zm.52-3.777a1.442,1.442,0,0,1,1.571,1.576v1.413a1.48,1.48,0,0,1-1.6,1.608H45.456v-4.6Zm-5.766,1.675V72.63h-.854v-4.6H41.2l1.333,2.8v-2.8h.848v4.6h-.848Zm-5.03,1.459c0,.447.236.7.61.7s.618-.256.618-.7V69.491c0-.441-.236-.7-.618-.7s-.61.262-.61.7Zm-.933-1.649a1.475,1.475,0,0,1,1.557-1.551A1.435,1.435,0,0,1,38.268,69.5v1.641A1.475,1.475,0,0,1,36.717,72.7,1.445,1.445,0,0,1,35.18,71.16Zm-4.192-1.484h.933v3.751h1.466v.847h-2.4ZM78.775,49.347a2.831,2.831,0,0,1,3.047-2.753,3.151,3.151,0,0,1,3.152,2.25l-1.7.68s-.355-1.185-1.406-1.185a.924.924,0,0,0-1.005.9c0,.71.548,1.154,1.583,1.775,1.318.8,2.413,1.79,2.413,3.285a2.92,2.92,0,0,1-3.2,2.944,3.567,3.567,0,0,1-3.375-2.575l1.7-.68s.532,1.51,1.657,1.51a1.034,1.034,0,0,0,1.124-1.066c0-.784-.621-1.242-1.745-1.923a3.905,3.905,0,0,1-2.249-3.165m-8.457,1.168V57.1H68.394V46.742h2.041l3,6.317V46.742h1.908V57.1H73.439ZM59.688,57.1V46.742H65.31v1.849H61.789V50.9h2.929V52.63H61.789v2.619h3.6V57.1ZM51.74,55.249h1.08c.992,0,1.539-.606,1.539-1.745V50.322c0-1.124-.547-1.731-1.539-1.731H51.74Zm1.169-8.507a3.248,3.248,0,0,1,3.535,3.551v3.181A3.334,3.334,0,0,1,52.85,57.1H49.639V46.742ZM41.8,51.728h.948a1.539,1.539,0,0,0,1.6-1.6,1.511,1.511,0,0,0-1.584-1.6H41.8ZM44.312,57.1l-1.39-3.773a2.924,2.924,0,0,1-.356.015H41.8V57.1H39.711V46.742h3.27a3.243,3.243,0,0,1,3.462,3.285,3.06,3.06,0,0,1-1.6,2.737L46.665,57.1Zm-12.7-3.773h2.07L32.646,49.6ZM36.878,57.1h-2.19l-.606-2.2H31.225l-.606,2.2H28.548L31.73,46.742h1.983ZM19.219,53.785v-3.7a3.32,3.32,0,0,1,3.506-3.493,3.231,3.231,0,0,1,3.447,3.448v.221H24.087v-.236c0-.992-.533-1.583-1.39-1.583s-1.377.591-1.377,1.583v3.714c0,1.11.548,1.7,1.436,1.7s1.45-.591,1.45-1.7V53H22.741V51.492h3.432v2.249a3.319,3.319,0,0,1-3.491,3.506,3.254,3.254,0,0,1-3.462-3.462m50.55-17.243v6.584H67.846V32.769h2.043l3,6.317V32.769H74.8V43.125H72.892ZM59.718,39.827c0,1.006.533,1.583,1.377,1.583s1.39-.577,1.39-1.583V36.054c0-.992-.533-1.584-1.39-1.584s-1.377.592-1.377,1.584Zm-2.1-3.714a3.32,3.32,0,0,1,3.506-3.493,3.231,3.231,0,0,1,3.448,3.447v3.7a3.321,3.321,0,0,1-3.492,3.506,3.255,3.255,0,0,1-3.463-3.462Zm-4.934-1.451v8.463h-2.1V34.662H48.408V32.769h6.435v1.893Zm-9.1,4.646h2.028v.532a3.22,3.22,0,0,1-3.359,3.433,3.184,3.184,0,0,1-3.388-3.388V36.039A3.249,3.249,0,0,1,42.3,32.62a3.138,3.138,0,0,1,3.315,3.373v.43H43.582V35.98c0-.947-.5-1.51-1.316-1.51s-1.3.563-1.3,1.51V39.9c0,.96.5,1.508,1.3,1.508s1.316-.548,1.316-1.508ZM31.2,39.353h2.07l-1.034-3.729Zm5.266,3.773H34.276l-.607-2.2H30.814l-.607,2.2H28.134l3.182-10.357H33.3Zm13.8,57.407H3.66V53.927H0V104.2H50.266Zm50.267-46.606v46.606H53.927V104.2h50.267V53.927ZM3.66,50.267V3.661H50.266V0H0V50.267ZM53.927,0h50.267V50.267h-3.661V3.661H53.927Z"/>
  </g>
</svg>
