<svg id="Group_7291" data-name="Group 7291" xmlns="http://www.w3.org/2000/svg" xmlns:xlink="http://www.w3.org/1999/xlink" width="45" height="44.995" viewBox="0 0 45 44.995">
  <defs>
    <clipPath id="clip-path">
      <rect id="Rectangle_938" data-name="Rectangle 938" width="45" height="44.995" fill="#77beb2"/>
    </clipPath>
  </defs>
  <g id="Group_7290" data-name="Group 7290" clip-path="url(#clip-path)">
    <path id="Path_4598" data-name="Path 4598" d="M0,22.485c.992-.576,1.894-1.178,2.863-1.64a2.649,2.649,0,0,0,1.571-2.151A18.387,18.387,0,0,1,19.562,4.255a.94.94,0,0,0,.771-.518C21.014,2.5,21.738,1.285,22.481,0c.123.184.218.311.3.447C23.4,1.529,24.044,2.6,24.642,3.7a1,1,0,0,0,.8.551A18.27,18.27,0,0,1,38.6,13.437a16.8,16.8,0,0,1,2.129,6.1,1.023,1.023,0,0,0,.588.833c1.082.592,2.143,1.222,3.211,1.84.138.08.27.172.469.3l-2.421,1.4a5.135,5.135,0,0,0-1.6.987,4.958,4.958,0,0,0-.471,1.793,18.512,18.512,0,0,1-15.02,14.042,1.082,1.082,0,0,0-.875.606c-.662,1.211-1.37,2.4-2.1,3.657-.123-.184-.217-.31-.3-.446-.635-1.1-1.281-2.187-1.892-3.3a.9.9,0,0,0-.721-.509A18.113,18.113,0,0,1,8.657,34.729a17.924,17.924,0,0,1-4.4-9.268.982.982,0,0,0-.538-.811c-1.085-.587-2.142-1.223-3.209-1.842-.153-.088-.3-.187-.514-.321m37.666.007a15.168,15.168,0,1,0-15.19,15.173,15.188,15.188,0,0,0,15.19-15.173" fill="#77beb2"/>
    <path id="Path_4599" data-name="Path 4599" d="M64.122,84.924c1.888-3.221,3.7-6.314,5.513-9.4a10.963,10.963,0,0,1,1.545-2.494,10.958,10.958,0,0,1,2.567-1.418q4.565-2.383,9.132-4.761c.142-.074.289-.136.541-.254-.13.24-.2.38-.279.515q-3.248,5.545-6.5,11.086a1.3,1.3,0,0,1-.471.483q-5.8,3.044-11.609,6.064c-.1.051-.2.087-.434.184m11.943-9.172a2.283,2.283,0,1,0-2.3,2.287,2.308,2.308,0,0,0,2.3-2.287" transform="translate(-51.285 -53.26)" fill="#77beb2"/>
  </g>
</svg>
