<svg id="Group_6622" data-name="Group 6622" xmlns="http://www.w3.org/2000/svg" xmlns:xlink="http://www.w3.org/1999/xlink" width="235.618" height="47.954" viewBox="0 0 235.618 47.954">
  <defs>
    <clipPath id="clip-path">
      <path id="Path_34" data-name="Path 34" d="M0,6.009H235.618V-41.945H0Z" transform="translate(0 41.945)" fill="#2c3408"/>
    </clipPath>
  </defs>
  <g id="Group_6621" data-name="Group 6621" transform="translate(0 0)" clip-path="url(#clip-path)">
    <g id="Group_6620" data-name="Group 6620" transform="translate(0.001 0.001)">
      <path id="Path_33" data-name="Path 33" d="M3.9,5.925l.469-7.557-.736-.134C1.289,3.25-1.654,4.855-8.074,4.855h-7.959a2.715,2.715,0,0,1-3.009-3.009V-32.4c0-5.484.6-7.023,2.675-7.624v-.87H-27.2v.87c2.006.6,2.674,2.14,2.674,7.624V-2.568c0,5.484-.668,7.022-2.674,7.624v.869Zm11.9,0H26.636V5.056c-2.074-.6-2.675-2.14-2.675-7.624V-32.4c0-5.484.6-7.023,2.675-7.624v-.87H15.8v.87c2.006.6,2.675,2.14,2.675,7.624V-2.568c0,5.484-.669,7.022-2.675,7.624ZM41.484-33,57.133,6.26h1.873L74.187-33c1.94-5.083,3.612-6.421,5.418-7.022v-.87H72.115v.87c2.274.468,2.541,2.675.869,7.089L60.276.107,47.369-33c-2.006-5.083-2.475-6.421-.469-7.022v-.87H36.467v.87c1.4.6,3.01,1.939,5.017,7.022M89.369,5.925H100.2V5.056c-2.074-.6-2.675-2.14-2.675-7.624V-32.4c0-5.484.6-7.023,2.675-7.624v-.87H89.369v.87c2.006.6,2.675,2.14,2.675,7.624V-2.568c0,5.484-.669,7.022-2.675,7.624Zm59.656.535h.87V-32.4c0-5.484.6-7.023,2.675-7.624v-.87h-8.427v.87c3.009.8,4.614,2.675,4.614,10.3V-3.037L119.531-40.891h-6.554v.87c2.675.6,3.478,2.14,3.478,7.624V-2.568c0,5.484-.669,7.022-2.675,7.624v.869h8.359V5.056c-3.009-.8-4.614-2.675-4.614-10.3V-34.537Zm41,.134c6.754,0,14.512-3.478,18.392-8.895V-14.874h-8.761v.8c2.875.736,3.41,2.341,3.41,6.488l.067,6.822c-1.673,3.344-6.019,6.019-11.036,6.019-13.51,0-21.4-13.844-21.268-26.485.134-12.306,7.357-18.927,16.988-18.927a17.681,17.681,0,0,1,16.453,10.3l.669-.134-.268-7.892c-2.608-1.74-8.962-3.478-14.914-3.478-14.312,0-24.344,10.767-24.344,24.211,0,14.379,9.7,23.742,24.612,23.742" transform="translate(27.202 41.359)" fill="#2c3408"/>
    </g>
  </g>
</svg>
