<svg xmlns="http://www.w3.org/2000/svg" xmlns:xlink="http://www.w3.org/1999/xlink" width="667.243" height="240.724" viewBox="0 0 667.243 240.724">
  <defs>
    <clipPath id="clip-path">
      <rect id="Rectangle_916" data-name="Rectangle 916" width="667.243" height="240.724" fill="none"/>
    </clipPath>
  </defs>
  <g id="Group_7259" data-name="Group 7259" opacity="0.687" style="mix-blend-mode: multiply;isolation: isolate">
    <g id="Group_7258" data-name="Group 7258">
      <g id="Group_7257" data-name="Group 7257" clip-path="url(#clip-path)">
        <path id="Path_4575" data-name="Path 4575" d="M0-67.039H28.4V-294.869H0Zm67.354,0H92.448V-265.813h.66L120.184-67.039h20.142L167.4-265.813h.66V-67.039h28.066V-294.869h-45.9l-19.15,140.99h-.66l-19.151-140.99H67.354Zm167.731,0h28.4v-105h13.868c28.726,0,42.925-14.859,42.925-44.576v-33.679c0-29.717-14.2-44.575-42.925-44.575H235.085Zm28.4-129.433v-73.962h10.9c13.868,0,17.5,4.953,17.5,24.1v25.755c0,19.15-3.632,24.1-17.5,24.1ZM338.1-67.039h27.075l5.284-52.83h24.434l5.283,52.83H428.9L402.488-294.869H364.516ZM372.44-144.3l9.906-118.868h.66L392.912-144.3ZM499.56-63.737c26.415,0,41.6-15.849,41.6-42.925v-48.867H513.758v44.905c0,15.849-3.632,21.792-13.537,21.792s-13.538-5.943-13.538-21.792v-140.66c0-15.85,3.632-21.793,13.538-21.793s13.537,5.943,13.537,21.793v33.679h27.406v-37.641c0-27.076-15.189-42.925-41.6-42.925-26.085,0-41.274,15.849-41.274,42.925v148.584c0,27.076,15.189,42.925,41.274,42.925m97.4-3.3h28.4v-203.4h27.735v-24.434H569.223v24.434h27.735Z" transform="translate(7.076 303.675)" fill="#2c3408"/>
      </g>
    </g>
  </g>
</svg>
