<svg xmlns="http://www.w3.org/2000/svg" xmlns:xlink="http://www.w3.org/1999/xlink" width="117" height="156" viewBox="0 0 117 156">
  <defs>
    <clipPath id="clip-path">
      <rect id="Rectangle_1287" data-name="Rectangle 1287" width="99.107" height="60.279" fill="#2c3408"/>
    </clipPath>
  </defs>
  <g id="Group_7474" data-name="Group 7474" transform="translate(-962 -3244)">
    <text id="On_site_cycle_storage" data-name="On site cycle storage" transform="translate(962 3360)" fill="#2c3408" font-size="18" font-family="FranklinGothicURW-Boo, FranklinGothic URW"><tspan x="-47" y="12">On site cycle </tspan><tspan x="-28" y="34">storage</tspan></text>
    <g id="Group_7464" data-name="Group 7464" transform="translate(971 3244)">
      <g id="Group_7464-2" data-name="Group 7464" clip-path="url(#clip-path)">
        <path id="Path_4703" data-name="Path 4703" d="M17.344,66.44A17.345,17.345,0,1,1,34.688,49.1,17.363,17.363,0,0,1,17.344,66.44m0-33.079A15.735,15.735,0,1,0,33.078,49.1,15.752,15.752,0,0,0,17.344,33.361" transform="translate(0 -6.19)" fill="#2c3408"/>
        <path id="Path_4704" data-name="Path 4704" d="M92.053,66.44a17.345,17.345,0,1,1,17.2-19.62.805.805,0,0,1-1.6.209,15.73,15.73,0,1,0-7.666,15.658.8.8,0,1,1,.813,1.389,17.335,17.335,0,0,1-8.746,2.364" transform="translate(-14.565 -6.19)" fill="#2c3408"/>
        <path id="Path_4705" data-name="Path 4705" d="M92.78,43.71A.805.805,0,0,1,92,43.1L81.627,1.61H79.248a.805.805,0,1,1,0-1.61h3.008a.805.805,0,0,1,.781.61l10.525,42.1a.8.8,0,0,1-.585.976.825.825,0,0,1-.2.024" transform="translate(-15.293)" fill="#2c3408"/>
        <path id="Path_4706" data-name="Path 4706" d="M43.9,47.716H21.349a.8.8,0,0,1-.693-1.213L35.692,20.942a.8.8,0,0,1,.694-.4H73.975a.8.8,0,0,1,.55,1.394L51.97,42.989a.805.805,0,0,1-1.1-1.178l21.06-19.656H36.845L22.757,46.106H43.9a.805.805,0,1,1,0,1.61" transform="translate(-4.005 -4.005)" fill="#2c3408"/>
        <path id="Path_4707" data-name="Path 4707" d="M101.027,1.61H82.984a.805.805,0,0,1,0-1.61h18.043a.805.805,0,0,1,0,1.61" transform="translate(-16.022)" fill="#2c3408"/>
        <path id="Path_4708" data-name="Path 4708" d="M96.058,13.638a.8.8,0,0,1-.805-.805V.805a.805.805,0,1,1,1.61,0V12.833a.8.8,0,0,1-.805.805" transform="translate(-18.571)" fill="#2c3408"/>
        <path id="Path_4709" data-name="Path 4709" d="M101.344,9.081H92.323a.805.805,0,0,1,0-1.61h9.021a.805.805,0,0,1,0,1.61" transform="translate(-17.842 -1.457)" fill="#2c3408"/>
        <path id="Path_4710" data-name="Path 4710" d="M98.7,13.638H94.19a.805.805,0,1,1,0-1.61H98.7a2.2,2.2,0,0,0,2.2-2.2V.805a.805.805,0,1,1,1.61,0V9.826A3.816,3.816,0,0,1,98.7,13.638" transform="translate(-18.206)" fill="#2c3408"/>
        <path id="Path_4711" data-name="Path 4711" d="M53.876,57.323a5.316,5.316,0,1,1,5.316-5.315,5.322,5.322,0,0,1-5.316,5.315m0-9.021a3.706,3.706,0,1,0,3.706,3.706A3.71,3.71,0,0,0,53.876,48.3" transform="translate(-9.467 -9.103)" fill="#2c3408"/>
        <path id="Path_4712" data-name="Path 4712" d="M62.487,53.906H54.969a.805.805,0,1,1,0-1.61h7.517a.805.805,0,0,1,0,1.61" transform="translate(-10.56 -10.196)" fill="#2c3408"/>
        <path id="Path_4713" data-name="Path 4713" d="M43.468,13.228H30.688a.8.8,0,0,1-.805-.805V8.663a3.063,3.063,0,0,1,3.06-3.06H36.7a7.07,7.07,0,0,1,3.289.759,7.22,7.22,0,0,0,3.477.744,2.964,2.964,0,0,1,3.061,3.061,2.964,2.964,0,0,1-3.061,3.061m-11.975-1.61H43.468a1.363,1.363,0,0,0,1.451-1.451,1.363,1.363,0,0,0-1.451-1.451,8.776,8.776,0,0,1-4.134-.884A5.492,5.492,0,0,0,36.7,7.213h-3.76a1.452,1.452,0,0,0-1.45,1.45Z" transform="translate(-5.826 -1.092)" fill="#2c3408"/>
        <path id="Path_4714" data-name="Path 4714" d="M50.1,41.748a.806.806,0,0,1-.733-.469L36.956,14.215a.805.805,0,0,1,1.464-.671L50.828,40.607a.806.806,0,0,1-.732,1.141" transform="translate(-7.191 -2.549)" fill="#2c3408"/>
        <path id="Path_4715" data-name="Path 4715" d="M118.892,69.867a.8.8,0,0,1-.805-.805V56.223a5.433,5.433,0,0,0-10.866,0V69.062a.805.805,0,1,1-1.61,0V56.223a7.043,7.043,0,1,1,14.087,0V69.062a.8.8,0,0,1-.805.805" transform="translate(-20.59 -9.588)" fill="#2c3408"/>
        <path id="Path_4716" data-name="Path 4716" d="M114.108,59.661a1.036,1.036,0,1,1,1.036-1.036,1.037,1.037,0,0,1-1.036,1.036m0-1.8a.766.766,0,1,0,.766.766.767.767,0,0,0-.766-.766" transform="translate(-22.045 -11.228)" fill="#2c3408"/>
        <path id="Path_4717" data-name="Path 4717" d="M114.108,67.073a1.036,1.036,0,1,1,1.036-1.035,1.037,1.037,0,0,1-1.036,1.035m0-1.8a.766.766,0,1,0,.766.766.768.768,0,0,0-.766-.766" transform="translate(-22.045 -12.673)" fill="#2c3408"/>
      </g>
    </g>
  </g>
</svg>
