<svg xmlns="http://www.w3.org/2000/svg" width="255.807" height="67.196" viewBox="0 0 255.807 67.196">
  <g id="Group_8041" data-name="Group 8041" transform="translate(-805 -937.604)">
    <g id="Group_7504" data-name="Group 7504" transform="translate(805 937.604)">
      <path id="Path_4699" data-name="Path 4699" d="M272.973,56.128,249.464.664l-9.288,4.128,1.233,2.628a5.6,5.6,0,0,1,.19,5.067L223.871,56.033c-2.559,6.288-5.119,8.728-7.962,9.76v1.314H226.9V65.793c-3.223-.751-3.791-3.471-1.232-9.76l5.5-13.42.57-1.5,11.85-28.995,12.228,28.995.62,1.4c-6.667,0-9.658-1.4-9.658-1.4H231.74l-.568,1.5H256.48l5.688,13.512c2.654,6.194,3.98,8.634.852,9.665v1.314h17.252V65.793c-2.18-1.032-4.644-3.471-7.3-9.665" transform="translate(-24.466 -0.664)" fill="#2c3408"/>
      <path id="Path_4700" data-name="Path 4700" d="M93.677,55.285V13.434c0-6.757.663-9.576,3.791-10.6V1.516H79.838v1.31c3.128,1.032,3.791,3.847,3.791,10.6V55.281c0,6.761-.663,9.577-3.791,10.608V67.2H97.47V65.889c-3.128-1.031-3.792-3.847-3.792-10.6" transform="translate(-9.047 -0.761)" fill="#2c3408"/>
      <path id="Path_4701" data-name="Path 4701" d="M26.353,65.514H22.546l-.015.007v0s-2.705,1.425-8.691,1.561V13.43c0-6.757.663-9.576,3.791-10.6V1.512H0V2.825c3.128,1.032,3.791,3.847,3.791,10.6V55.281c0,6.757-.663,9.576-3.791,10.6V67.2H45.123l.758-11.825-1.232-.187c-3.792,8.071-8.721,10.323-18.295,10.323" transform="translate(0 -0.76)" fill="#2c3408"/>
      <path id="Path_4702" data-name="Path 4702" d="M172.187,2.829c4.929,1.5,7.2,4.788,7.2,16.235h.011V43.555l0,0c.029.051,1.661,2.977,1.675,9.43l-41.5-51.476H128.866V2.822c4.079,1.031,4.929,3.847,4.929,10.6V55.278c0,6.757-.664,9.576-3.792,10.6V67.2h12.7V65.889c-4.929-1.5-7.2-4.788-7.2-16.235V12.4l44.458,55.557h1.232V53.246l.005.009V18.223l-.005,0V13.433c0-6.757.663-9.576,3.791-10.6V1.515h-12.8Z" transform="translate(-14.602 -0.76)" fill="#2c3408"/>
    </g>
  </g>
</svg>
