<svg xmlns="http://www.w3.org/2000/svg" xmlns:xlink="http://www.w3.org/1999/xlink" width="351.018" height="154.226" viewBox="0 0 351.018 154.226">
  <defs>
    <clipPath id="clip-path">
      <path id="Path_32" data-name="Path 32" d="M0,19.326H351.018V-134.9H0Z" transform="translate(0 134.9)" fill="#2c3408"/>
    </clipPath>
    <clipPath id="clip-path-2">
      <rect id="Rectangle_64" data-name="Rectangle 64" width="371.596" height="163.372" fill="#2c3408"/>
    </clipPath>
  </defs>
  <g id="Group_6619" data-name="Group 6619" opacity="0.365" style="mix-blend-mode: normal;isolation: isolate">
    <g id="Group_6618" data-name="Group 6618" transform="translate(0 0)" clip-path="url(#clip-path)">
      <g id="Group_6617" data-name="Group 6617" transform="translate(-10.289 -8.003)" opacity="0.4" style="mix-blend-mode: multiply;isolation: isolate">
        <g id="Group_6616" data-name="Group 6616">
          <g id="Group_6615" data-name="Group 6615" clip-path="url(#clip-path-2)">
            <g id="Group_6614" data-name="Group 6614" transform="translate(10.289 8.003)">
              <path id="Path_31" data-name="Path 31" d="M3.484,19.326c17.595,0,27.8-10.644,27.8-29.107V-33.893c0-14.771-4.779-23.677-16.509-31.28l-11.73-7.6c-6.3-4.127-8.689-8.689-8.689-16.943v-14.336c0-10.427,2.389-14.336,8.689-14.336s8.689,3.91,8.689,14.336v16.509H29.767v-19.115c0-17.812-9.992-28.238-27.152-28.238-16.943,0-26.935,10.427-26.935,28.238v18.029c0,14.771,4.779,23.677,16.509,31.28l11.73,7.6c6.3,4.127,8.689,8.689,8.689,16.943v19.984c0,11.3-2.389,15.64-9.558,15.64-6.951,0-9.34-4.344-9.34-15.64V-35.414H-24.32V-9.782c0,18.464,10.209,29.107,27.8,29.107M54.1,17.154H72.777V-51.922H81.9c18.9,0,28.238-9.775,28.238-29.325V-103.4c0-19.55-9.34-29.325-28.238-29.325H54.1ZM72.777-68v-48.657h7.168c9.123,0,11.513,3.258,11.513,15.857v16.943C91.457-71.255,89.068-68,79.945-68Zm49.089,85.15h17.812L143.153-17.6h16.074L162.7,17.154h18.9L164.223-132.728h-24.98Zm22.591-50.829,6.517-78.2h.434l6.517,78.2Zm83.627,53c17.377,0,27.369-10.427,27.369-28.239V-41.061H237.423v29.542c0,10.427-2.389,14.336-8.906,14.336s-8.906-3.91-8.906-14.336v-92.535c0-10.427,2.389-14.336,8.906-14.336s8.906,3.91,8.906,14.336V-81.9h18.029v-24.763c0-17.812-9.992-28.238-27.369-28.238-17.16,0-27.152,10.427-27.152,28.238V-8.913c0,17.812,9.992,28.239,27.152,28.239m50.61-2.172H326.7V1.079H297.373V-55.4h25.415V-71.472H297.373v-45.182H326.7v-16.074H278.692Z" transform="translate(24.32 134.9)" fill="#2c3408"/>
            </g>
          </g>
        </g>
      </g>
    </g>
  </g>
</svg>
