<svg xmlns="http://www.w3.org/2000/svg" xmlns:xlink="http://www.w3.org/1999/xlink" width="116" height="167" viewBox="0 0 116 167">
  <defs>
    <clipPath id="clip-path">
      <rect id="Rectangle_1289" data-name="Rectangle 1289" width="72.608" height="81.209" fill="#2c3408"/>
    </clipPath>
  </defs>
  <g id="Group_7476" data-name="Group 7476" transform="translate(-434 -3233)">
    <text id="Pet_friendly_apartments" data-name="Pet friendly apartments" transform="translate(434 3360)" fill="#2c3408" font-size="18" font-family="FranklinGothicURW-Boo, FranklinGothic URW"><tspan x="-42" y="12">Pet friendly </tspan><tspan x="-44" y="34">apartments</tspan></text>
    <g id="Group_7468" data-name="Group 7468" transform="translate(456 3233)" clip-path="url(#clip-path)">
      <path id="Path_4729" data-name="Path 4729" d="M23.21,79.705a.971.971,0,0,1-.93-.694c-1.914-6.442-2.923-10.73-3.138-16.289a22.16,22.16,0,0,1,2.867-12.512c2.151-3.489,5.388-5.85,8.519-8.132,3.243-2.364,6.306-4.6,8.218-7.971a21.285,21.285,0,0,0,2.036-6.789l.2-1.058a.971.971,0,0,1,1.907.365l-.2,1.047a23.089,23.089,0,0,1-2.256,7.393c-2.119,3.738-5.5,6.2-8.765,8.582-3.116,2.272-6.059,4.418-8.009,7.582a20.239,20.239,0,0,0-2.581,11.418c.207,5.353,1.192,9.524,3.059,15.809a.973.973,0,0,1-.931,1.248" transform="translate(-2.852 -3.799)" fill="#2c3408"/>
      <path id="Path_4730" data-name="Path 4730" d="M73.08,84.713H62.92a.971.971,0,0,1-.95-.772L58.538,67.5a.97.97,0,1,1,1.9-.4l3.271,15.668h8.4a3.932,3.932,0,0,0-1.643-3.024A5.431,5.431,0,0,0,67.6,78.726a1.509,1.509,0,0,1-1.375-1.317L63.707,53.263a10.385,10.385,0,0,1,1.319-5.9l2.624-4.633a5.622,5.622,0,0,0,.726-3l-.621-15.227a.971.971,0,0,1,1.94-.08l.62,15.228a7.559,7.559,0,0,1-.974,4.032l-2.625,4.633a8.426,8.426,0,0,0-1.075,4.77L68.116,76.83a7.3,7.3,0,0,1,3.474,1.338,5.884,5.884,0,0,1,2.461,4.785v.79a.971.971,0,0,1-.971.971" transform="translate(-8.728 -3.506)" fill="#2c3408"/>
      <path id="Path_4731" data-name="Path 4731" d="M31.6,88.972c-4.076,0-8.024-.01-10.719-.039-8.242-.088-11.475-2.6-11.61-2.708C3.536,81.654,2.009,75.692.837,69.47-.289,63.5.041,53.409.055,52.983a.983.983,0,0,1,1-.937.971.971,0,0,1,.937,1c0,.1-.336,10.3.749,16.062,1.1,5.847,2.523,11.44,7.739,15.6.024.019,2.941,2.2,10.419,2.285,6.916.075,22.135.02,26.461,0a5.092,5.092,0,0,0-.816-3.1,3.566,3.566,0,0,0-1.7-1,17.725,17.725,0,0,0-6.036-.322c-.682.039-1.352.077-2,.091-.9.02-1.48.039-2.1.06l-.361.012a10.166,10.166,0,0,1-1.374.037.971.971,0,0,1,.044-1.939c.651-.017,1.132-.034,1.583-.049a11.1,11.1,0,0,0,9.632-7.855s1.406-5-.873-9.012c-2.436-4.29-7.441-5.716-11.3-5.636a.971.971,0,1,1-.044-1.942c4.439-.088,10.172,1.584,13.029,6.619,2.693,4.745,1.1,10.327,1.034,10.562a13.314,13.314,0,0,1-5.243,7.017,14.188,14.188,0,0,1,4.587.5,5.364,5.364,0,0,1,2.605,1.6,7.381,7.381,0,0,1,1.226,5.135,1.285,1.285,0,0,1-1.277,1.154c-2.049.009-9.4.037-16.386.037" transform="translate(0 -7.763)" fill="#2c3408"/>
      <path id="Path_4732" data-name="Path 4732" d="M50.629,25.649a2.927,2.927,0,0,1-1.127-.226l-5.575-2.329c-1.787-.745-3.715-2.523-2.756-6.758L44.43,5.279A7.4,7.4,0,0,1,51.491,0h10.95a5.271,5.271,0,0,1,4.737,2.991l1.85,4.65,8.6,1.026a1.234,1.234,0,0,1,1.065,1.466L77.48,16.192a6.836,6.836,0,0,1-5.367,5.261.791.791,0,0,1-.11.014l-10.534.8a.971.971,0,0,1-.148-1.937l10.476-.8a4.888,4.888,0,0,0,3.783-3.745l1.054-5.285-7.861-.928a1.989,1.989,0,0,1-1.548-1.213L65.4,3.767a3.3,3.3,0,0,0-2.958-1.826H51.491a5.451,5.451,0,0,0-5.2,3.887l-3.243,11c-.693,3.072.5,4.01,1.626,4.479l5.575,2.328a.981.981,0,0,0,1.36-.905V8.681a.971.971,0,1,1,1.942,0V22.725a2.926,2.926,0,0,1-2.923,2.923M77.394,10.595h0Z" transform="translate(-6.103 0)" fill="#2c3408"/>
      <path id="Path_4733" data-name="Path 4733" d="M66.358,9.11a1.665,1.665,0,1,1-1.664-1.664A1.664,1.664,0,0,1,66.358,9.11" transform="translate(-9.401 -1.111)" fill="#2c3408"/>
    </g>
  </g>
</svg>
