<svg id="Group_7260" data-name="Group 7260" xmlns="http://www.w3.org/2000/svg" width="260.113" height="82.602" viewBox="0 0 260.113 82.602">
  <path id="Path_4576" data-name="Path 4576" d="M-11.135-22.458c19.327,0,40.726-12.655,40.726-41.071,0-28.186-21.283-41.532-40.726-41.532-24.389,0-40.956,17.487-40.956,41.072,0,28.531,21.4,41.531,40.956,41.531M-6.3-25.334c-20.593,0-35.779-22.2-36.585-45.328-.69-18.753,9.549-31.752,27.036-31.752,20.593,0,35.664,22.434,36.469,46.478.576,17.256-8.513,30.6-26.92,30.6m94.8,2.876c15.991,0,28.646-8.744,28.646-31.867v-35.2c0-9.434,1.15-12.08,4.6-13.115v-1.5H107.475v1.5c5.062,1.381,7.823,4.6,7.823,17.717V-53.98c0,22.549-13.23,29.106-23.124,29.106-14.956,0-26.805-7.708-26.805-29.106V-89.529c0-9.434,1.15-12.08,4.6-13.115v-1.5H51.333v1.5c3.566,1.035,4.6,3.681,4.6,13.115v36.239c0,23.123,16.106,30.832,32.558,30.832M201-22.8a26.177,26.177,0,0,0,7.018-.805v-1.381a9.323,9.323,0,0,1-1.841.115c-3.912,0-6.213-3.8-11.735-17.6-5.523-14.151-7.708-21.168-21.859-23.009,14.956-1.725,22.779-9.893,22.779-20.708,0-10.238-6.9-17.947-30.257-17.947H142.447v1.5c3.566,1.035,4.6,3.681,4.6,13.115v51.31c0,9.433-1.036,12.08-4.6,13.115v1.5h18.637v-1.5c-3.566-1.035-4.6-3.682-4.6-13.115V-65.139h7.363c13.806,0,14.725,8.053,21.4,23.929C190.305-29.245,192.146-22.8,201-22.8M166.146-66.865h-9.664v-35.319c1.841-.115,3.681-.23,5.407-.23,17.027,0,23.7,8.628,23.7,18.867,0,9.778-6.213,16.681-19.443,16.681" transform="translate(52.091 105.06)" fill="#eee5d4"/>
</svg>
