<svg xmlns="http://www.w3.org/2000/svg" width="569.889" height="85.252" viewBox="0 0 569.889 85.252">
  <path id="Path_4579" data-name="Path 4579" d="M0-19.387H19.262v-1.546c-3.686-1.07-4.756-3.805-4.756-13.555V-63.975h14.15c13.555,0,16.884,2.854,18.43,8.2h1.427V-73.844H47.085c-1.546,5.232-4.875,8.085-18.43,7.967H14.506v-34.839H35.551c11.177,0,16.171,2.972,20.213,10.939l1.308-.357L56-102.618H0v1.546C3.567-100,4.756-97.267,4.756-87.517v53.03C4.756-24.738,3.567-22,0-20.932Zm78.355,0H97.617v-1.546c-3.686-1.07-4.755-3.805-4.755-13.555v-53.03c0-9.75,1.069-12.485,4.755-13.555v-1.546H78.355v1.546c3.567,1.07,4.756,3.805,4.756,13.555v53.03c0,9.75-1.189,12.485-4.756,13.555Zm106.059.952h1.546V-87.517c0-9.75,1.07-12.485,4.756-13.555v-1.546H175.734v1.546c5.351,1.427,8.2,4.756,8.2,18.311v47.442l-51.959-67.3H120.326v1.546c4.756,1.07,6.183,3.805,6.183,13.555v53.03c0,9.75-1.19,12.485-4.756,13.555v1.546h14.862v-1.546c-5.35-1.427-8.2-4.756-8.2-18.311V-91.322Zm29.011-.952h19.262v-1.546C229-22,227.931-24.738,227.931-34.487v-53.03c0-9.75,1.07-12.485,4.756-13.555v-1.546H213.426v1.546c3.567,1.07,4.756,3.805,4.756,13.555v53.03c0,9.75-1.189,12.485-4.756,13.555Zm71.1,1.189c14.03,0,27.823-9.036,27.823-23.9,0-13.435-12.365-18.667-25.564-23.9-10.106-4.162-22.354-8.68-22.354-19.857,0-10.107,8.2-15.7,17.836-15.7,13.554,0,21.878,7.372,26.277,17.716l1.189-.357-.475-13.792a48.458,48.458,0,0,0-23.186-5.47c-17.478,0-29.012,8.8-29.012,22.71,0,12.6,8.918,17.6,22.949,23.185,9.988,4.043,24.612,9.512,24.612,21.4,0,9.631-8.2,15.813-17.716,15.813-16.527,0-25.564-10.582-30.2-23.066l-1.307.237.594,16.527C261.58-22.6,272.043-18.2,284.528-18.2m49.581-1.189h19.262v-1.546c-3.686-1.07-4.756-3.805-4.756-13.555V-62.548h45.3v28.061c0,9.75-1.189,12.485-4.756,13.555v1.546h19.262v-1.546c-3.686-1.07-4.756-3.805-4.756-13.555v-53.03c0-9.75,1.07-12.485,4.756-13.555v-1.546H389.16v1.546c3.567,1.07,4.756,3.805,4.756,13.555V-64.45h-45.3V-87.517c0-9.75,1.07-12.485,4.756-13.555v-1.546H334.109v1.546c3.566,1.07,4.756,3.805,4.756,13.555v53.03c0,9.75-1.19,12.485-4.756,13.555Zm156.831,0,.951-15.814-1.307-.238C486.3-24.381,479.05-21.17,467.635-21.17H452.178c-3.449,0-5.351-1.9-5.351-5.35v-36.5h15.219c13.555,0,17,2.734,18.43,8.085H481.9V-72.892h-1.427c-1.426,5.35-4.875,8.085-18.43,8.085H446.827v-36.027h17.479c12.127,0,19.143,3.567,23.3,14.03l1.307-.357-1.307-15.457H432.321v1.546c3.567,1.07,4.756,3.805,4.756,13.555v53.03c0,9.75-1.19,12.485-4.756,13.555v1.546ZM542.066-18.2c14.03,0,27.823-9.036,27.823-23.9,0-13.435-12.366-18.667-25.564-23.9-10.106-4.162-22.354-8.68-22.354-19.857,0-10.107,8.2-15.7,17.836-15.7,13.555,0,21.878,7.372,26.277,17.716l1.189-.357L566.8-97.98a48.452,48.452,0,0,0-23.186-5.47c-17.478,0-29.012,8.8-29.012,22.71,0,12.6,8.918,17.6,22.949,23.185,9.988,4.043,24.613,9.512,24.613,21.4,0,9.631-8.2,15.813-17.716,15.813-16.527,0-25.564-10.582-30.2-23.066l-1.308.237.595,16.527c5.588,4.043,16.051,8.442,28.536,8.442" transform="translate(0 103.45)" fill="#2c3408"/>
</svg>
