<svg xmlns="http://www.w3.org/2000/svg" xmlns:xlink="http://www.w3.org/1999/xlink" width="145" height="164" viewBox="0 0 145 164">
  <defs>
    <clipPath id="clip-path">
      <rect id="Rectangle_1288" data-name="Rectangle 1288" width="75.32" height="75.977" fill="#2c3408"/>
    </clipPath>
  </defs>
  <g id="Group_7475" data-name="Group 7475" transform="translate(-682 -3236)">
    <text id="Secure_building_entry_access" data-name="Secure building entry &amp; access" transform="translate(682 3360)" fill="#2c3408" font-size="18" font-family="FranklinGothicURW-Boo, FranklinGothic URW"><tspan x="-58" y="12">Secure building </tspan><tspan x="-56" y="34">entry &amp; access</tspan></text>
    <g id="Group_7466" data-name="Group 7466" transform="translate(717 3236)" clip-path="url(#clip-path)">
      <path id="Path_4718" data-name="Path 4718" d="M70.217,75.8h-7.18a.811.811,0,0,1-.8-.936l1.516-9.672a5.777,5.777,0,1,1,5.749,0l1.516,9.675a.811.811,0,0,1-.8.936M63.984,74.18h5.285l-1.462-9.322a.81.81,0,0,1,.478-.87,4.16,4.16,0,1,0-3.322,0,.811.811,0,0,1,.482.872Z" transform="translate(-11.514 -10.296)" fill="#2c3408"/>
      <path id="Path_4719" data-name="Path 4719" d="M45.959,75.977a.811.811,0,0,1-.811-.811V1.622H17.076L7.222,12.345V75.167a.811.811,0,0,1-1.622,0V12.029a.813.813,0,0,1,.213-.549L16.122.262A.813.813,0,0,1,16.72,0H45.959a.811.811,0,0,1,.811.811V75.167a.811.811,0,0,1-.811.811" transform="translate(-1.06 0)" fill="#2c3408"/>
      <path id="Path_4720" data-name="Path 4720" d="M76.259,84.308a.811.811,0,0,1-.811-.811V45.645H55.19a.811.811,0,1,1,0-1.622H76.259a.811.811,0,0,1,.811.811V83.5a.811.811,0,0,1-.811.811" transform="translate(-10.29 -8.331)" fill="#2c3408"/>
      <path id="Path_4721" data-name="Path 4721" d="M20.621,20.242a.811.811,0,0,1-.811-.811V15.8a.811.811,0,0,1,.811-.811H41.887a.811.811,0,0,1,0,1.622H21.432v2.821a.811.811,0,0,1-.811.811" transform="translate(-3.749 -2.836)" fill="#2c3408"/>
      <path id="Path_4722" data-name="Path 4722" d="M20.621,32.519a.811.811,0,0,1-.811-.811V28.077a.811.811,0,0,1,.811-.811H41.887a.811.811,0,0,1,0,1.622H21.432v2.821a.811.811,0,0,1-.811.811" transform="translate(-3.749 -5.16)" fill="#2c3408"/>
      <path id="Path_4723" data-name="Path 4723" d="M20.621,44.8a.811.811,0,0,1-.811-.811V40.354a.811.811,0,0,1,.811-.811H41.887a.811.811,0,0,1,0,1.622H21.432v2.821a.811.811,0,0,1-.811.811" transform="translate(-3.749 -7.483)" fill="#2c3408"/>
      <path id="Path_4724" data-name="Path 4724" d="M20.621,57.074a.811.811,0,0,1-.811-.811V52.632a.811.811,0,0,1,.811-.811H41.887a.811.811,0,0,1,0,1.622H21.432v2.821a.811.811,0,0,1-.811.811" transform="translate(-3.749 -9.806)" fill="#2c3408"/>
      <path id="Path_4725" data-name="Path 4725" d="M20.621,69.351a.811.811,0,0,1-.811-.811V64.909a.811.811,0,0,1,.811-.811H41.887a.811.811,0,0,1,0,1.622H21.432V68.54a.811.811,0,0,1-.811.811" transform="translate(-3.749 -12.13)" fill="#2c3408"/>
      <path id="Path_4726" data-name="Path 4726" d="M20.621,81.629a.811.811,0,0,1-.811-.811V77.187a.811.811,0,0,1,.811-.811H41.887a.811.811,0,0,1,0,1.622H21.432v2.821a.811.811,0,0,1-.811.811" transform="translate(-3.749 -14.453)" fill="#2c3408"/>
      <path id="Path_4727" data-name="Path 4727" d="M73.63,93.333H.811a.811.811,0,1,1,0-1.622H73.63a.811.811,0,0,1,0,1.622" transform="translate(0 -17.355)" fill="#2c3408"/>
      <path id="Path_4728" data-name="Path 4728" d="M83.794,29.449H71.09a4.719,4.719,0,0,1,.1-9.437,6.791,6.791,0,0,1,12.623,1.342h.2a4.049,4.049,0,0,1-.22,8.095m-12.46-7.817a3.1,3.1,0,1,0-.2,6.2l12.659,0a2.427,2.427,0,0,0,.122-4.852.969.969,0,0,0-.371.036.811.811,0,0,1-1.164-.606,5.191,5.191,0,0,0-5.824-4.444,5.309,5.309,0,0,0-4.114,3.184.809.809,0,0,1-.743.486Z" transform="translate(-12.583 -3.085)" fill="#2c3408"/>
    </g>
  </g>
</svg>
