<svg xmlns="http://www.w3.org/2000/svg" width="712.534" height="242.293" viewBox="0 0 712.534 242.293">
  <g id="Group_7261" data-name="Group 7261" opacity="0.712" style="mix-blend-mode: multiply;isolation: isolate">
    <path id="Path_4578" data-name="Path 4578" d="M0-55.091H43.681c29.689,0,44.363-15.356,44.363-46.069V-244.489c0-30.713-14.674-46.069-44.363-46.069H0ZM29.348-80.344V-265.3H40.61c14.333,0,18.087,5.119,18.087,24.911v135.138c0,19.793-3.754,24.912-18.087,24.912ZM126.6-55.091h75.418V-80.344h-46.07v-88.727H195.88v-25.253H155.952V-265.3h46.07v-25.253H126.6Zm130.7,0h29.349V-265.3h28.665v-25.253H228.64V-265.3H257.3Zm70.984,0h27.983l5.461-54.6h25.252l5.461,54.6h29.689l-27.3-235.467H355.59Zm35.49-79.854L374.018-257.8h.683l10.238,122.853Zm91.112,79.854H484.24V-290.558H454.892Zm69.612,0h72.005V-80.344H553.852V-290.558H524.5Zm144.349,3.413c27.642,0,43.681-16.722,43.681-45.729v-37.879c0-23.205-7.508-37.2-25.936-49.141l-18.428-11.944c-9.9-6.484-13.65-13.65-13.65-26.618v-22.523c0-16.38,3.753-22.523,13.65-22.523s13.65,6.142,13.65,22.523v25.936h28.325v-30.03c0-27.983-15.7-44.364-42.657-44.364-26.618,0-42.316,16.38-42.316,44.364v28.324c0,23.205,7.508,37.2,25.936,49.141L669.536-160.2c9.9,6.484,13.65,13.65,13.65,26.618v31.4c0,17.746-3.753,24.571-15.015,24.571-10.92,0-14.674-6.825-14.674-24.571v-35.491H625.172v40.268c0,29.007,16.039,45.729,43.681,45.729" transform="translate(0 293.971)" fill="#d1dcc0"/>
  </g>
</svg>
