<svg xmlns="http://www.w3.org/2000/svg" xmlns:xlink="http://www.w3.org/1999/xlink" width="288.5" height="75.781" viewBox="0 0 288.5 75.781">
  <defs>
    <clipPath id="clip-path">
      <path id="Path_19" data-name="Path 19" d="M0,1.847H288.5V-73.934H0Z" transform="translate(0 73.934)" fill="#2c3408"/>
    </clipPath>
  </defs>
  <g id="Group_7298" data-name="Group 7298" transform="translate(0 73.934)">
    <g id="Group_3" data-name="Group 3" transform="translate(0 -73.934)" clip-path="url(#clip-path)">
      <g id="Group_2" data-name="Group 2" transform="translate(128.866 0)">
        <path id="Path_18" data-name="Path 18" d="M.294.021h-12.08V1.5c4.6,1.163,5.559,4.339,5.559,11.959v47.2c0,7.621-.749,10.8-4.277,11.959v1.482H3.822V72.626c-5.559-1.693-8.125-5.4-8.125-18.31V12.3l50.14,62.657h1.39V58.233ZM93.11,44.791l13.364-32.7,13.791,32.7.748,1.693,6.415,15.24c2.993,6.986,4.489,9.737.961,10.9v1.482h19.457V72.626c-2.459-1.164-5.238-3.915-8.232-10.9L113.1-.826,102.625,3.83l1.39,2.964a6.318,6.318,0,0,1,.214,5.715L84.237,61.619c-2.886,7.092-5.773,9.843-8.98,11.007v1.482h12.4V72.626c-3.635-.847-4.276-3.915-1.39-11.007l6.2-15.135Z" transform="translate(11.786 0.826)" fill="#2c3408"/>
      </g>
    </g>
    <g id="Group_4" data-name="Group 4" transform="translate(233.122 -28.317)">
      <path id="Path_20" data-name="Path 20" d="M.429,0H-16.532l-.641,1.693H1.53Z" transform="translate(17.173)" fill="#2c3408"/>
    </g>
    <g id="Group_10" data-name="Group 10" transform="translate(0 -73.934)" clip-path="url(#clip-path)">
      <g id="Group_5" data-name="Group 5" transform="translate(250.724 45.617)">
        <path id="Path_21" data-name="Path 21" d="M0,0S3.373,1.583,10.894,1.583l.048.111H0Z" fill="#2c3408"/>
      </g>
      <g id="Group_6" data-name="Group 6" transform="translate(79.838 0.847)">
        <path id="Path_22" data-name="Path 22" d="M0,1.805H19.885V.323C16.357-.84,15.608-4.016,15.608-11.636v-47.2c0-7.621.748-10.8,4.276-11.959v-1.482H0V-70.8c3.528,1.164,4.276,4.339,4.276,11.959v47.2C4.276-4.016,3.528-.84,0,.323Z" transform="translate(0 72.282)" fill="#2c3408"/>
      </g>
      <g id="Group_7" data-name="Group 7" transform="translate(0 0.847)">
        <path id="Path_23" data-name="Path 23" d="M.38,1.805V-58.84c0-7.621.748-10.8,4.276-11.959v-1.482H-15.228V-70.8c3.528,1.164,4.276,4.339,4.276,11.959v47.2c0,7.621-.748,10.8-4.276,11.959V1.805Z" transform="translate(15.228 72.282)" fill="#2c3408"/>
      </g>
      <g id="Group_8" data-name="Group 8" transform="translate(14.355 73.033)">
        <path id="Path_24" data-name="Path 24" d="M.269,0s-3.356,1.776-10.84,1.776l-.215.124H.269Z" transform="translate(10.786)" fill="#2c3408"/>
      </g>
      <g id="Group_9" data-name="Group 9" transform="translate(21.401 61.387)">
        <path id="Path_25" data-name="Path 25" d="M0,.33H29.488l.855-13.336-1.39-.211C24.676-4.115,19.117-1.575,8.32-1.575H4.026Z" transform="translate(0 13.217)" fill="#2c3408"/>
      </g>
    </g>
    <g id="Group_11" data-name="Group 11" transform="translate(185.86 -54.239)">
      <path id="Path_27" data-name="Path 27" d="M0,.7V-27.237l2.025-.632V1.78Z" transform="translate(0 27.869)" fill="#2c3408"/>
    </g>
    <g id="Group_14" data-name="Group 14" transform="translate(0 -73.934)" clip-path="url(#clip-path)">
      <g id="Group_12" data-name="Group 12" transform="translate(185.86 48.26)">
        <path id="Path_28" data-name="Path 28" d="M0,0S1.893,3.323,1.893,10.731l.132.213V0Z" fill="#2c3408"/>
      </g>
      <g id="Group_13" data-name="Group 13" transform="translate(177.723 0.847)">
        <path id="Path_29" data-name="Path 29" d="M.247.483V-5.9c0-7.621.748-10.8,4.276-11.96v-1.481H-9.909v1.481c5.559,1.693,8.125,5.4,8.125,18.31Z" transform="translate(9.909 19.346)" fill="#2c3408"/>
      </g>
    </g>
  </g>
</svg>
