<svg xmlns="http://www.w3.org/2000/svg" xmlns:xlink="http://www.w3.org/1999/xlink" width="79.125" height="20.784" viewBox="0 0 79.125 20.784">
  <defs>
    <clipPath id="clip-path">
      <path id="Path_19" data-name="Path 19" d="M0-53.15H79.125V-73.934H0Z" transform="translate(0 73.934)" fill="#2c3408"/>
    </clipPath>
  </defs>
  <g id="Group_6654" data-name="Group 6654" transform="translate(0 73.934)">
    <g id="Group_3" data-name="Group 3" transform="translate(0 -73.934)" clip-path="url(#clip-path)">
      <g id="Group_2" data-name="Group 2" transform="translate(35.343 0)">
        <path id="Path_18" data-name="Path 18" d="M-8.473-.594h-3.313v.406c1.261.319,1.525,1.19,1.525,3.28V16.039c0,2.09-.205,2.961-1.173,3.28v.406h3.929v-.406c-1.525-.464-2.228-1.48-2.228-5.022V2.773L4.018,19.958H4.4V15.372ZM16.983,11.685l3.665-8.969,3.782,8.969.205.464,1.759,4.18c.821,1.916,1.231,2.671.264,2.99v.406H32v-.406c-.674-.319-1.436-1.074-2.258-2.99L22.466-.826,19.593.451l.381.813a1.733,1.733,0,0,1,.059,1.567L14.55,16.3c-.792,1.945-1.583,2.7-2.463,3.019v.406h3.4v-.406c-1-.232-1.173-1.074-.381-3.019l1.7-4.151Z" transform="translate(11.786 0.826)" fill="#2c3408"/>
      </g>
    </g>
    <g id="Group_4" data-name="Group 4" transform="translate(63.937 -61.423)">
      <path id="Path_20" data-name="Path 20" d="M-12.345,0H-17l-.176.464h5.129Z" transform="translate(17.173)" fill="#2c3408"/>
    </g>
    <g id="Group_10" data-name="Group 10" transform="translate(0 -73.934)" clip-path="url(#clip-path)">
      <g id="Group_5" data-name="Group 5" transform="translate(68.764 12.511)">
        <path id="Path_21" data-name="Path 21" d="M0,0A7.706,7.706,0,0,0,2.988.434L3,.464H0Z" fill="#2c3408"/>
      </g>
      <g id="Group_6" data-name="Group 6" transform="translate(21.897 0.232)">
        <path id="Path_22" data-name="Path 22" d="M0-51.963H5.454v-.406c-.968-.319-1.173-1.19-1.173-3.28V-68.6c0-2.09.205-2.961,1.173-3.28v-.406H0v.406c.968.319,1.173,1.19,1.173,3.28v12.946c0,2.09-.205,2.961-1.173,3.28Z" transform="translate(0 72.282)" fill="#2c3408"/>
      </g>
      <g id="Group_7" data-name="Group 7" transform="translate(0 0.232)">
        <path id="Path_23" data-name="Path 23" d="M-10.947-51.963V-68.6c0-2.09.205-2.961,1.173-3.28v-.406h-5.454v.406c.968.319,1.173,1.19,1.173,3.28v12.946c0,2.09-.205,2.961-1.173,3.28v.406Z" transform="translate(15.228 72.282)" fill="#2c3408"/>
      </g>
      <g id="Group_8" data-name="Group 8" transform="translate(3.937 20.03)">
        <path id="Path_24" data-name="Path 24" d="M-7.754,0a6.9,6.9,0,0,1-2.973.487l-.059.034h3.032Z" transform="translate(10.786)" fill="#2c3408"/>
      </g>
      <g id="Group_9" data-name="Group 9" transform="translate(5.869 16.836)">
        <path id="Path_25" data-name="Path 25" d="M0-9.5H8.087l.234-3.658-.381-.058c-1.173,2.5-2.7,3.193-5.659,3.193H1.1Z" transform="translate(0 13.217)" fill="#2c3408"/>
      </g>
    </g>
    <g id="Group_11" data-name="Group 11" transform="translate(50.975 -68.532)">
      <path id="Path_27" data-name="Path 27" d="M0-20.035V-27.7l.555-.173v8.132Z" transform="translate(0 27.869)" fill="#2c3408"/>
    </g>
    <g id="Group_14" data-name="Group 14" transform="translate(0 -73.934)" clip-path="url(#clip-path)">
      <g id="Group_12" data-name="Group 12" transform="translate(50.975 13.236)">
        <path id="Path_28" data-name="Path 28" d="M0,0A6.418,6.418,0,0,1,.519,2.943L.555,3V0Z" fill="#2c3408"/>
      </g>
      <g id="Group_13" data-name="Group 13" transform="translate(48.743 0.232)">
        <path id="Path_29" data-name="Path 29" d="M-7.123-13.908v-1.752c0-2.09.205-2.961,1.173-3.28v-.406H-9.909v.406c1.525.464,2.228,1.481,2.228,5.022Z" transform="translate(9.909 19.346)" fill="#2c3408"/>
      </g>
    </g>
  </g>
</svg>
