<svg xmlns="http://www.w3.org/2000/svg" xmlns:xlink="http://www.w3.org/1999/xlink" width="1003.473" height="177.5" viewBox="0 0 1003.473 177.5">
  <defs>
    <clipPath id="clip-path">
      <rect id="Rectangle_1389" data-name="Rectangle 1389" width="1003.473" height="177.5" fill="none"/>
    </clipPath>
  </defs>
  <g id="Group_8089" data-name="Group 8089" transform="translate(0)">
    <path id="Path_5152" data-name="Path 5152" d="M49,2.5V111.749h-.5L27.251,2.5H0V175H19V42.75h.5L45,175H68V2.5Z" fill="#fff"/>
    <path id="Path_5153" data-name="Path 5153" d="M87.5,2.5h55.25V21H109V73h29.25V91.5H109v65h33.75V175H87.5Z" fill="#fff"/>
    <rect id="Rectangle_1388" data-name="Rectangle 1388" width="21.5" height="172.5" transform="translate(157.498 2.5)" fill="#fff"/>
    <g id="Group_8088" data-name="Group 8088">
      <g id="Group_8087" data-name="Group 8087" clip-path="url(#clip-path)">
        <path id="Path_5154" data-name="Path 5154" d="M197.494,149V33.75c0-21.25,12.25-33.75,32-33.75,20,0,31.75,12.5,31.75,33.75v19h-20.75V37c0-13-2.75-18-10.75-18s-10.75,5-10.75,18V146.75c0,8,2.75,11.75,9.25,11.75,8.25,0,12.5-6.25,12.5-18v-44h-10.75v-18h31.75V175h-18.25V162.25h-.75c-4,10-11.25,15.25-21.5,15.25-14.75,0-23.75-10.75-23.75-28.5" fill="#fff"/>
        <path id="Path_5155" data-name="Path 5155" d="M279.743,2.5h21.5V73h22.25V2.5h21.5V175h-21.5V91.5h-22.25V175h-21.5Z" fill="#fff"/>
        <path id="Path_5156" data-name="Path 5156" d="M364.49,2.5h31.25c21.75,0,32.5,11.25,32.5,33.75V53c0,14.5-4.5,23.25-13.25,27.5V81c9.5,4.5,14.25,13.25,14.25,28.25v32c0,22.5-10.75,33.75-32.5,33.75H364.49Zm29,70.5c10.5,0,13.25-3.75,13.25-18V39.25c0-14.5-2.75-18.25-13.25-18.25h-7.5V73Zm1,83.5c10.5,0,13.25-3.75,13.25-18.25v-28.5c0-14.5-2.75-18.25-13.25-18.25h-8.5v65Z" fill="#fff"/>
        <path id="Path_5157" data-name="Path 5157" d="M444.989,143.5V34c0-21.5,12.25-34,32.25-34,20.25,0,32.25,12.5,32.25,34V143.5c0,21.5-12,34-32.25,34-20,0-32.25-12.5-32.25-34m43-3V37c0-13-2.75-18-10.75-18s-10.75,5-10.75,18V140.5c0,13,2.75,18,10.75,18s10.75-5,10.75-18" fill="#fff"/>
        <path id="Path_5158" data-name="Path 5158" d="M527.236,144.5V2.5h21.5V141.25c0,12.5,2.5,17.25,10.25,17.25s10.25-4.75,10.25-17.25V2.5h21v142c0,20.75-12,33-31.5,33s-31.5-12.25-31.5-33" fill="#fff"/>
        <path id="Path_5159" data-name="Path 5159" d="M609.234,2.5h31.25c21.75,0,32.5,11.25,32.5,33.75v18.5c0,14.75-4.5,23.75-13.75,28v.5c9.25,4.25,13.75,13,13.75,27.75v64h-21.5V111.5c0-14.5-4-18.25-15.75-18.25h-5V175h-21.5Zm29,72.25c10.5,0,13.25-3.75,13.25-18.25V39.251c0-14.5-2.75-18.25-13.25-18.25h-7.5v53.75Z" fill="#fff"/>
        <path id="Path_5160" data-name="Path 5160" d="M691.231,2.5h21.5V73h22.25V2.5h21.5V175h-21.5V91.5h-22.25V175h-21.5Z" fill="#fff"/>
        <path id="Path_5161" data-name="Path 5161" d="M774.729,143.5V34c0-21.5,12.25-34,32.25-34,20.25,0,32.25,12.5,32.25,34V143.5c0,21.5-12,34-32.25,34-20,0-32.25-12.5-32.25-34m43-3V37c0-13-2.75-18-10.75-18s-10.75,5-10.75,18V140.5c0,13,2.75,18,10.75,18s10.75-5,10.75-18" fill="#fff"/>
        <path id="Path_5162" data-name="Path 5162" d="M856.226,143.5V34c0-21.5,12.25-34,32.25-34,20.25,0,32.25,12.5,32.25,34V143.5c0,21.5-12,34-32.25,34-20,0-32.25-12.5-32.25-34m43-3V37c0-13-2.75-18-10.75-18s-10.75,5-10.75,18V140.5c0,13,2.75,18,10.75,18s10.75-5,10.75-18" fill="#fff"/>
        <path id="Path_5163" data-name="Path 5163" d="M938.973,2.5h32c21.75,0,32.5,11.25,32.5,33.75v105c0,22.5-10.75,33.75-32.5,33.75h-32Zm29.75,154c10.5,0,13.25-3.75,13.25-18.25v-99c0-14.5-2.75-18.25-13.25-18.25h-8.25V156.5Z" fill="#fff"/>
      </g>
    </g>
  </g>
</svg>
