<svg xmlns="http://www.w3.org/2000/svg" xmlns:xlink="http://www.w3.org/1999/xlink" width="236" height="139" viewBox="0 0 236 139">
  <defs>
    <clipPath id="clip-path">
      <rect id="Rectangle_1408" data-name="Rectangle 1408" width="53.98" height="47.436" fill="none"/>
    </clipPath>
  </defs>
  <g id="Group_8146" data-name="Group 8146" transform="translate(-1192 -2626)">
    <text id="Professionally_managed" data-name="Professionally managed" transform="translate(1192.5 2710.5)" fill="#2c3408" stroke="#2c3408" stroke-width="0.5" font-size="20" font-family="TheSeasons-Bold, The Seasons" font-weight="700" letter-spacing="0.253em"><tspan x="-114" y="20">PROFESSIONALLY </tspan><tspan x="-63" y="48">MANAGED</tspan></text>
    <g id="Group_8095" data-name="Group 8095" transform="translate(1283 2626)">
      <g id="Group_8141" data-name="Group 8141" transform="translate(0 0.001)" clip-path="url(#clip-path)">
        <path id="Path_5347" data-name="Path 5347" d="M26.374,10.858c.877,2.459,1.092,4.624,3.579,3.855s6.737-3.282,8.218-.747A10.234,10.234,0,0,1,39.255,18.5a25.753,25.753,0,0,1-.12,3.624c-.47,2.491-.964,4.819,1.166,6.245,1.4.3,3.188-1.269,4.586-.972,2.425.515,3.111,2.38,2.8,4.736-.15,1.124-.369,2.473.489,3.214.276.239.629.372.908.606a2.4,2.4,0,0,1,.722,1.4,4.806,4.806,0,0,1-1,3.936,4.734,4.734,0,0,1-3.68,1.714c-2.725-.062-3.145.616-3.248,1.186a.9.9,0,0,0,.541.946,13.9,13.9,0,0,0,9.884.276c.788-.328,1.236-.429,1.445.452.114.483.5,1.246-.072,1.4a9.862,9.862,0,0,1-1.294.122,11.151,11.151,0,0,1-1.659.036,20.144,20.144,0,0,1-7.554-.971c-1.106-.309-2.612-.906-3.265-.657a18.952,18.952,0,0,1-3.315.935,6.175,6.175,0,0,1-2.557.23c-2.427-.456-4.531-2.929-6.2-4.541l-.2-.2c-2.521-2.443-8.894,2.55-10.45-2.162-.505-1.531,2.626-2.809,2.974-4.256a.659.659,0,0,0,.013-.385.64.64,0,0,0-.51-.321,14.772,14.772,0,0,0-5.847.438c-1.15.573-1.834,1.569-3.246,1.547a6.054,6.054,0,0,1-5.919-4.763c-.944-3.61,1.32-4.786,1.119-5.552s-2.9-1.7-3.868-2.728a6.648,6.648,0,0,1-1.892-5c.055-2.469,1.506-2.732,2.129-3.479,1.294-1.552.275-4.062.263-5.86a8.091,8.091,0,0,1,2.9-6.246A4.088,4.088,0,0,1,7.6,2.432c2-.1,3.7,1.949,5.675,1.626C15,3.774,15.472,2.1,16.555,1.039A3.99,3.99,0,0,1,20.6.213c3.121.936,4.9,8.186,5.776,10.644" transform="translate(0 0)" fill="#2e3417"/>
        <path id="Path_5348" data-name="Path 5348" d="M41.414,32.132a.533.533,0,0,0-.507-.369H34.889l-1.86-5.724a.533.533,0,0,0-1.014,0l-1.86,5.724H24.138a.534.534,0,0,0-.314.966l4.867,3.538-1.858,5.724a.533.533,0,0,0,.821.6l4.868-3.537,4.869,3.537a.534.534,0,0,0,.821-.6l-1.86-5.724,4.868-3.538a.534.534,0,0,0,.194-.6" transform="translate(-9.056 -9.845)" fill="#d1dcc0"/>
      </g>
    </g>
  </g>
</svg>
