<svg xmlns="http://www.w3.org/2000/svg" xmlns:xlink="http://www.w3.org/1999/xlink" width="236" height="111" viewBox="0 0 236 111">
  <defs>
    <clipPath id="clip-path">
      <rect id="Rectangle_1404" data-name="Rectangle 1404" width="53.98" height="47.436" fill="none"/>
    </clipPath>
  </defs>
  <g id="Group_8142" data-name="Group 8142" transform="translate(-67 -2626)">
    <text id="No_deposit" data-name="No deposit" transform="translate(67.5 2710.5)" fill="#2c3408" stroke="#2c3408" stroke-width="0.5" font-size="20" font-family="TheSeasons-Bold, The Seasons" font-weight="700" letter-spacing="0.253em"><tspan x="-80" y="20">NO DEPOSIT</tspan></text>
    <g id="Group_8091" data-name="Group 8091" transform="translate(158 2626)">
      <g id="Group_8134" data-name="Group 8134" transform="translate(0 0)" clip-path="url(#clip-path)">
        <path id="Path_5334" data-name="Path 5334" d="M26.374,10.858c.877,2.459,1.092,4.624,3.579,3.855s6.737-3.282,8.218-.747A10.234,10.234,0,0,1,39.255,18.5a25.752,25.752,0,0,1-.12,3.624c-.47,2.491-.964,4.819,1.166,6.245,1.4.3,3.188-1.269,4.586-.972,2.425.515,3.111,2.38,2.8,4.736-.15,1.124-.369,2.473.489,3.214.276.239.629.372.908.606a2.4,2.4,0,0,1,.722,1.4,4.806,4.806,0,0,1-1,3.936,4.734,4.734,0,0,1-3.68,1.714c-2.725-.062-3.145.616-3.248,1.186a.9.9,0,0,0,.541.946,13.9,13.9,0,0,0,9.884.276c.788-.328,1.236-.429,1.445.453.114.483.5,1.246-.072,1.4a9.861,9.861,0,0,1-1.294.122,11.152,11.152,0,0,1-1.659.036,20.144,20.144,0,0,1-7.554-.971c-1.106-.309-2.612-.906-3.265-.657a18.953,18.953,0,0,1-3.315.935,6.175,6.175,0,0,1-2.557.23c-2.427-.456-4.531-2.929-6.2-4.541l-.2-.2c-2.521-2.443-8.894,2.55-10.45-2.162-.505-1.531.4-2.918.753-4.365a.659.659,0,0,0,.013-.385.64.64,0,0,0-.51-.321,5.857,5.857,0,0,0-3.625.548c-1.15.573-1.834,1.569-3.246,1.547a6.054,6.054,0,0,1-5.919-4.763c-.944-3.61,1.32-4.786,1.119-5.552s-2.9-1.7-3.868-2.728a6.648,6.648,0,0,1-1.892-5c.055-2.469,1.506-2.732,2.129-3.479,1.294-1.552.275-4.062.263-5.86a8.091,8.091,0,0,1,2.9-6.246A4.088,4.088,0,0,1,7.6,2.432c2-.1,3.7,1.949,5.675,1.626C15,3.774,15.472,2.1,16.555,1.039A3.99,3.99,0,0,1,20.6.213c3.121.936,4.9,8.186,5.776,10.644" transform="translate(0 0)" fill="#2e3417"/>
        <path id="Path_5335" data-name="Path 5335" d="M19.415,41.514c-.218.4-.417.694-.575.933a1.729,1.729,0,0,1-1.408.873c-.674,0-1.329-.317-1.329-1.151,0-.635.476-1.29,1.606-1.29a7.829,7.829,0,0,1,1.329.159c.119-.952.238-2.5.377-4.127H16.579l.159-.317h2.7l.08-.932c.337-3.79,2.162-6.428,5.1-6.428,1.15,0,2.7.358,2.7,1.309,0,.635-.4,1.111-.793,1.111-1.17,0-1.309-1.964-2.757-1.964-1.646,0-1.726,2.341-2.222,5.634-.059.436-.139.853-.238,1.27h3.729l-.158.317H21.221a20.384,20.384,0,0,1-1.587,4.226,34.761,34.761,0,0,0,5.077.615,3.381,3.381,0,0,0,3.015-1.29l.158.08c-.813,1.508-1.963,3.254-3.511,3.254-1.9,0-3.63-1.785-4.958-2.282" transform="translate(-6.178 -11.212)" fill="#d1dcc0"/>
        <path id="Path_5336" data-name="Path 5336" d="M24.182,43.912A6.937,6.937,0,0,1,20.6,42.451a11.593,11.593,0,0,0-1.242-.737c-.169.29-.323.52-.451.712a2.027,2.027,0,0,1-1.665,1.011A1.457,1.457,0,0,1,15.6,41.977c0-.8.592-1.6,1.914-1.6a6.674,6.674,0,0,1,1.061.11c.082-.737.166-1.742.255-2.8l.055-.663h-3l.467-.934h2.6l.055-.65c.368-4.139,2.439-6.71,5.4-6.71,1.5,0,3.005.5,3.005,1.618a1.309,1.309,0,0,1-1.1,1.419c-.71,0-1.111-.547-1.466-1.03-.367-.5-.685-.935-1.291-.935-1.112,0-1.361,1.417-1.739,4.132-.055.4-.113.809-.178,1.24-.041.305-.094.608-.158.915h3.842l-.467.934h-3.6a20.669,20.669,0,0,1-1.364,3.68l.184.03a29.547,29.547,0,0,0,4.432.514,3.1,3.1,0,0,0,2.762-1.158l.152-.218.681.341-.151.28c-.857,1.59-2.062,3.415-3.782,3.415m-4.2-2.566c.305.171.621.375.947.586A6.5,6.5,0,0,0,24.182,43.3c1,0,1.858-.895,2.525-1.89a4.628,4.628,0,0,1-2.188.462,29.913,29.913,0,0,1-4.531-.522ZM17.517,41c-.957,0-1.3.507-1.3.981,0,.733.64.843,1.021.843a1.43,1.43,0,0,0,1.156-.742c.152-.228.345-.518.556-.9l-.157-.027A7.472,7.472,0,0,0,17.517,41m2.035-4.584h.007l-.113,1.331c-.1,1.189-.194,2.314-.286,3.076l.007-.012a20.074,20.074,0,0,0,1.562-4.161l.078-.314c.1-.42.176-.826.232-1.24.065-.433.123-.845.177-1.237a12.1,12.1,0,0,1,.867-3.748c-1.341.98-2.229,2.868-2.454,5.392ZM24.3,29.352a3.018,3.018,0,0,1,1.059,1.025c.354.482.59.777.968.777.2,0,.485-.313.485-.8,0-.649-1.311-1.034-2.512-1" transform="translate(-5.986 -11.02)" fill="#d1dcc0"/>
        <path id="Path_5337" data-name="Path 5337" d="M37.153,36.257c0-4.424,3.134-7.023,6.109-7.023,2.757,0,6.149,2.282,6.149,7.2,0,4.424-3.134,7.023-6.109,7.023-2.757,0-6.149-2.282-6.149-7.2m10.215,1.389c0-3.868-1.824-8-4.918-8-2.023,0-3.253,2.163-3.253,5.416,0,3.849,1.844,7.975,4.919,7.975,2.043,0,3.252-2.143,3.252-5.4" transform="translate(-14.254 -11.212)" fill="#d1dcc0"/>
        <path id="Path_5338" data-name="Path 5338" d="M43.11,43.575c-3.13,0-6.457-2.632-6.457-7.51,0-4.589,3.263-7.331,6.417-7.331,3.13,0,6.457,2.632,6.457,7.51,0,4.589-3.263,7.331-6.417,7.331M39.807,30.5a6.825,6.825,0,0,0-2.537,5.569c0,4.248,2.709,6.64,5.4,6.874C40.159,42.026,38.7,38.4,38.7,34.875A7.643,7.643,0,0,1,39.807,30.5m2.451-.729c-1.789,0-2.945,2-2.945,5.108,0,3.687,1.763,7.667,4.611,7.667,1.816,0,2.944-1.949,2.944-5.088,0-3.7-1.763-7.687-4.61-7.687m1.247-.4c2.515.915,3.979,4.552,3.979,8.085a7.731,7.731,0,0,1-1.047,4.309,6.841,6.841,0,0,0,2.473-5.519C48.911,32,46.2,29.6,43.5,29.37" transform="translate(-14.062 -11.02)" fill="#d1dcc0"/>
      </g>
    </g>
  </g>
</svg>
