<svg xmlns="http://www.w3.org/2000/svg" xmlns:xlink="http://www.w3.org/1999/xlink" width="236" height="111" viewBox="0 0 236 111">
  <defs>
    <clipPath id="clip-path">
      <rect id="Rectangle_1405" data-name="Rectangle 1405" width="53.98" height="47.436" fill="none"/>
    </clipPath>
  </defs>
  <g id="Group_8143" data-name="Group 8143" transform="translate(-348 -2626)">
    <text id="PET_FRIENDLY" data-name="PET FRIENDLY" transform="translate(348.5 2710.5)" fill="#2c3408" stroke="#2c3408" stroke-width="0.5" font-size="20" font-family="TheSeasons-Bold, The Seasons" font-weight="700" letter-spacing="0.253em"><tspan x="-91" y="20">PET FRIENDLY</tspan></text>
    <g id="Group_8092" data-name="Group 8092" transform="translate(439 2626)">
      <g id="Group_8135" data-name="Group 8135" transform="translate(0 0)" clip-path="url(#clip-path)">
        <path id="Path_5339" data-name="Path 5339" d="M53.674,47.261a9.411,9.411,0,0,1-1.294.123,10.819,10.819,0,0,1-1.658.037,20.154,20.154,0,0,1-7.556-.968c-1.1-.314-2.613-.906-3.267-.66a19.081,19.081,0,0,1-3.31.937,6.193,6.193,0,0,1-2.558.228c-2.428-.456-4.53-2.928-6.207-4.543-.062-.062-.129-.129-.2-.191-1.109-1.079-2.971-.709-4.838-.37-2.367.438-4.746.838-5.615-1.794-.505-1.529.407-2.916.752-4.364a.7.7,0,0,0,.018-.388.661.661,0,0,0-.512-.321,5.855,5.855,0,0,0-3.624.549c-1.153.573-1.837,1.572-3.248,1.547a6.419,6.419,0,0,1-3.039-.82,6.114,6.114,0,0,1-2.878-3.939c-.943-3.612,1.319-4.79,1.116-5.554s-2.9-1.7-3.865-2.731A6.623,6.623,0,0,1,0,19.046c.055-2.472,1.5-2.737,2.126-3.483,1.294-1.553.277-4.062.265-5.856a8.074,8.074,0,0,1,2.9-6.245A4.08,4.08,0,0,1,7.6,2.432c2-.1,3.7,1.948,5.677,1.627,1.726-.284,2.2-1.954,3.279-3.021A3.99,3.99,0,0,1,20.595.213c3.125.937,4.9,8.186,5.775,10.646s1.1,4.623,3.581,3.853,6.737-3.28,8.216-.746A10.113,10.113,0,0,1,39.252,18.5a25.757,25.757,0,0,1-.117,3.625c-.468,2.49-.962,4.821,1.165,6.245,1.4.3,3.187-1.27,4.586-.968,2.422.512,3.113,2.38,2.8,4.734-.148,1.122-.37,2.472.487,3.212.277.24.629.376.912.61a2.388,2.388,0,0,1,.721,1.393,4.805,4.805,0,0,1-1,3.939,4.733,4.733,0,0,1-3.68,1.714c-2.724-.062-3.15.616-3.248,1.184a.907.907,0,0,0,.542.949,13.883,13.883,0,0,0,9.88.271c.789-.327,1.239-.425,1.448.456.111.481.5,1.245-.074,1.393" transform="translate(0 0)" fill="#2e3417"/>
        <path id="Path_5340" data-name="Path 5340" d="M35.742,32.977l-.364,1.812a4.253,4.253,0,0,1-1.032,1.673,2.992,2.992,0,0,1-2.132,1l-3.714.118a.617.617,0,0,0,.018,1.233h.018l.937-.031.308,7.416a4.31,4.31,0,0,1-.561,2.306l-1.5,2.651a4.737,4.737,0,0,0-.253.5c-2.367.438-4.746.838-5.615-1.794-.505-1.529.407-2.916.752-4.364a.7.7,0,0,0,.018-.388.661.661,0,0,0-.512-.321,5.855,5.855,0,0,0-3.624.549c-1.153.573-1.837,1.572-3.248,1.547a6.419,6.419,0,0,1-3.039-.82,11.228,11.228,0,0,0,2.9-3.206,9.559,9.559,0,0,0,.962-2.823,5.583,5.583,0,0,0,2.046.45,3.244,3.244,0,0,0,.906-.123A2.982,2.982,0,0,0,20.9,38.673c1.251-2.663,1.529-7.262,1.541-7.453a.617.617,0,1,0-1.233-.074c0,.049-.271,4.549-1.424,7a1.754,1.754,0,0,1-1.1,1.029,3.857,3.857,0,0,1-2.465-.419l-.006-.018q-.157-.065-.314-.148c-.055-.031-.1-.062-.154-.092h-.006a.91.91,0,0,1-.08-.049c-.814-.555-1.473-1.6-1.023-3.569l1.861-6.319a4.235,4.235,0,0,1,4.037-3.021h6.256A3.02,3.02,0,0,1,29.5,27.25L30.553,29.9l3.193.382a3.044,3.044,0,0,0,2,2.694" transform="translate(-4.682 -9.794)" fill="#d1dcc0"/>
        <path id="Path_5341" data-name="Path 5341" d="M50.263,34.374l-.086.419a1.807,1.807,0,0,1-.992-1.307l.468.055a.692.692,0,0,1,.487.284.7.7,0,0,1,.123.549" transform="translate(-18.869 -12.843)" fill="#fff"/>
        <path id="Path_5342" data-name="Path 5342" d="M34.173,31.19a1.163,1.163,0,0,1,1.162,1.163c0,.642-.52.64-1.162.64s-1.162,0-1.162-.64a1.163,1.163,0,0,1,1.162-1.163" transform="translate(-12.665 -11.963)" fill="#2e3417"/>
      </g>
    </g>
  </g>
</svg>
