<svg xmlns="http://www.w3.org/2000/svg" xmlns:xlink="http://www.w3.org/1999/xlink" width="862" height="259.154" viewBox="0 0 862 259.154">
  <defs>
    <clipPath id="clip-path">
      <rect id="Rectangle_930" data-name="Rectangle 930" width="862" height="259.154" fill="#eee5d4"/>
    </clipPath>
  </defs>
  <g id="Group_7268" data-name="Group 7268" opacity="0.548">
    <g id="Group_7267" data-name="Group 7267" clip-path="url(#clip-path)">
      <g id="Group_7266" data-name="Group 7266" transform="translate(18.023 14.018)">
        <path id="Path_4580" data-name="Path 4580" d="M16.287,121.723c14.04,0,23.971-7.191,29.45-20.889h1.027V118.3h25V-13.883H28.272V10.772H43v60.27C43,87.137,37.176,95.7,25.875,95.7c-8.9,0-12.67-5.137-12.67-16.095V-70.729c0-17.807,3.767-24.656,14.725-24.656s14.725,6.849,14.725,24.656v21.574H71.077V-75.18c0-29.108-16.095-46.23-43.49-46.23-27.053,0-43.832,17.122-43.832,46.23V82.685c0,24.313,12.328,39.038,32.532,39.038M102.58,118.3h28.08l5.479-54.791H161.48l5.479,54.791h29.792l-27.4-236.284H129.975Zm35.614-80.131L148.467-85.111h.685L159.425,38.168Zm91.43,80.131h29.45V6.321h6.849c16.095,0,21.574,5.137,21.574,25V118.3h29.45V30.634c0-20.2-6.164-32.189-18.834-38.011v-.685c12.67-5.822,18.834-18.149,18.834-38.353V-71.756c0-30.82-14.725-46.23-44.517-46.23H229.624ZM259.074-19.02V-92.645h10.273c14.383,0,18.149,5.137,18.149,25v23.628c0,19.862-3.767,25-18.149,25ZM355.638,118.3H399.47c29.792,0,44.517-15.41,44.517-46.23V-71.756c0-30.82-14.725-46.23-44.517-46.23H355.638Zm29.45-25.341v-185.6h11.3c14.383,0,18.149,5.137,18.149,25V67.96c0,19.862-3.767,25-18.149,25ZM482.681,118.3h75.679V92.958H512.131V3.923H552.2V-21.417H512.131V-92.645h46.229v-25.341H482.681Zm109.579,0h26.026V-62.853h.685L653.9,118.3h31.5V-117.986H659.379V31.661h-.685L629.587-117.986H592.26Zm173.616,3.424c27.738,0,43.832-16.78,43.832-45.887V37.825c0-23.286-7.534-37.326-26.026-49.312L765.191-23.472c-9.931-6.506-13.7-13.7-13.7-26.71v-22.6c0-16.437,3.767-22.6,13.7-22.6s13.7,6.164,13.7,22.6v26.026h28.423V-76.893c0-28.08-15.752-44.517-42.805-44.517-26.71,0-42.463,16.437-42.463,44.517V-48.47c0,23.286,7.534,37.326,26.026,49.312l18.492,11.985c9.931,6.506,13.7,13.7,13.7,26.71v31.5c0,17.807-3.767,24.656-15.067,24.656-10.958,0-14.725-6.849-14.725-24.656V35.428H722.044V75.836c0,29.107,16.095,45.887,43.832,45.887" transform="translate(16.245 121.41)" fill="#eee5d4"/>
      </g>
    </g>
  </g>
</svg>
