<svg xmlns="http://www.w3.org/2000/svg" width="389.586" height="75.704" viewBox="0 0 389.586 75.704">
  <path id="Path_4581" data-name="Path 4581" d="M0,37.372H11.913V36c-3.585-.739-4.005-4.217-1.264-11.072L16.87,9.536H46.6l6.432,15.5c3.374,7.908,4.217,10.017.949,10.966v1.37H70.327V36c-2.215-.949-4.746-3.058-8.014-10.966L36.375-37.276l-7.908,3.585.949,2.215a5.452,5.452,0,0,1,.212,4.954L8.857,24.93C5.587,32.944,2.952,35.053,0,36ZM17.5,7.956,31.525-26.732,45.969,7.956ZM120.091,38.428c11.809,0,21.826-2.954,26.783-5.7l1.686-13.706L147.4,18.92c-4.113,11.387-12.969,17.4-24.355,17.4-21.932,0-33.952-18.978-33.846-38.8,0-21.508,12.969-32.684,29.732-32.684,12.548,0,22.563,6.43,26.676,16.027l1.053-.212L146.24-31.9c-4.113-2.635-14.657-5.273-23.725-5.273-24.776,0-42.174,16.659-42.174,39.118,0,22.984,15.5,36.481,39.749,36.481m64.421-1.055H201.7V36c-3.268-.949-4.217-3.374-4.217-12.021V-34.747h4.956c9.488,0,13.6,2.531,17.186,10.123l1.159-.212-.633-11.6h-54.3l-.631,11.6,1.16.212c3.585-7.592,7.7-10.123,17.186-10.123h5.165V23.981c0,8.647-.947,11.072-4.217,12.021Zm87.409,1.055c17.713,0,37.324-11.6,37.324-37.643,0-25.831-19.507-38.061-37.324-38.061-22.353,0-37.536,16.027-37.536,37.641,0,26.148,19.611,38.063,37.536,38.063m4.428-2.637c-18.872,0-32.79-20.348-33.529-41.542-.633-17.186,8.751-29.1,24.778-29.1,18.872,0,32.684,20.558,33.423,42.595.527,15.816-7.8,28.046-24.672,28.046M384,38.215h1.372V-23.042c0-8.647.947-11.072,4.217-12.021v-1.37H376.3v1.37c4.744,1.266,7.273,4.217,7.273,16.239V23.244L337.5-36.433H327.167v1.37c4.217.949,5.483,3.374,5.483,12.021V23.981c0,8.647-1.055,11.072-4.217,12.021v1.37h13.179V36c-4.744-1.266-7.275-4.217-7.275-16.239v-46.18Z" transform="translate(0 37.276)" fill="#eee5d4"/>
</svg>
