<svg xmlns="http://www.w3.org/2000/svg" xmlns:xlink="http://www.w3.org/1999/xlink" width="236" height="139" viewBox="0 0 236 139">
  <defs>
    <clipPath id="clip-path">
      <rect id="Rectangle_1407" data-name="Rectangle 1407" width="53.98" height="47.436" fill="none"/>
    </clipPath>
  </defs>
  <g id="Group_8145" data-name="Group 8145" transform="translate(-911 -2626)">
    <text id="Secure_Cycle_storage" data-name="Secure Cycle storage" transform="translate(911.5 2710.5)" fill="#2c3408" stroke="#2c3408" stroke-width="0.5" font-size="20" font-family="TheSeasons-Bold, The Seasons" font-weight="700" letter-spacing="0.253em"><tspan x="-99" y="20">SECURE CYCLE </tspan><tspan x="-59" y="48">STORAGE</tspan></text>
    <g id="Group_8094" data-name="Group 8094" transform="translate(1002 2626)">
      <g id="Group_8140" data-name="Group 8140" transform="translate(0 0)" clip-path="url(#clip-path)">
        <path id="Path_5345" data-name="Path 5345" d="M53.678,47.261a9.4,9.4,0,0,1-1.294.123,10.817,10.817,0,0,1-1.658.037,20.134,20.134,0,0,1-7.556-.968c-.136-.037-.271-.08-.42-.123-.486-.154-1.029-.333-1.516-.45a2.565,2.565,0,0,0-1.331-.086,18.968,18.968,0,0,1-3.316.937,10.149,10.149,0,0,1-1.621.284,3.744,3.744,0,0,1-.936-.055,4.048,4.048,0,0,1-.537-.142,5.584,5.584,0,0,1-1.171-.512,8.961,8.961,0,0,1-1.116-.74A20.809,20.809,0,0,1,29.117,43.7c-.456-.45-.888-.894-1.288-1.282-.068-.062-.136-.129-.2-.191a1.659,1.659,0,0,0-.2-.166c-1.017-.783-2.539-.579-4.117-.3a18.129,18.129,0,0,1-3.082.413,2.854,2.854,0,0,1-3.057-2.114,3.056,3.056,0,0,1-.148-.956,1,1,0,0,1,.006-.136c.068-.653.6-1.054.838-1.72.148-.419.727-.592.826-1.011a.5.5,0,0,0-.493-.709c-1.171-.247-3.334-.524-4.4.006-1.146.573-1.83,1.572-3.241,1.547a6.057,6.057,0,0,1-5.923-4.759c-.038-.142-.075-.284-.1-.419a6.172,6.172,0,0,1-.129-1.233c-.012-2.355,1.516-3.267,1.35-3.9-.2-.746-2.768-1.652-3.8-2.657l-.073-.074a7.246,7.246,0,0,1-.881-1.122A6.724,6.724,0,0,1,0,19.046c.055-2.472,1.509-2.737,2.132-3.483,1.294-1.553.271-4.062.265-5.856A8.074,8.074,0,0,1,5.3,3.462,4.062,4.062,0,0,1,7.6,2.432c2-.1,3.7,1.948,5.676,1.627,1.725-.284,2.2-1.954,3.284-3.021A3.991,3.991,0,0,1,20.6.213c3.118.937,4.9,8.186,5.774,10.646s1.091,4.623,3.581,3.853,6.737-3.28,8.216-.746A10.279,10.279,0,0,1,39.256,18.5a25.662,25.662,0,0,1-.117,3.625c-.475,2.49-.968,4.821,1.165,6.245,1.393.3,3.186-1.27,4.585-.968,2.422.512,3.112,2.38,2.8,4.734-.154,1.122-.37,2.472.487,3.212.277.24.629.376.906.61a2.317,2.317,0,0,1,.721,1.393,4.824,4.824,0,0,1-.992,3.939,4.745,4.745,0,0,1-3.685,1.714c-2.724-.062-3.144.616-3.242,1.184a.785.785,0,0,0,0,.234.924.924,0,0,0,.3.573.7.7,0,0,0,.235.142,13.9,13.9,0,0,0,9.885.271c.79-.327,1.233-.425,1.442.456.118.481.5,1.245-.068,1.393" transform="translate(0 0)" fill="#2e3417"/>
        <path id="Path_5346" data-name="Path 5346" d="M44.931,56.2c-.1-.2-.2-.388-.3-.573a13.387,13.387,0,0,0-8.5-6.467.593.593,0,0,0-.111-.043.3.3,0,0,0-.074,0,13.159,13.159,0,0,0-2.928-.339,13.577,13.577,0,0,0-2.619.259l-4.647-18.6h4.191v8.593a.618.618,0,0,0,.616.616h4.764v.006a2.924,2.924,0,0,0,2.921-2.922V30.429h.53a.616.616,0,0,0,0-1.233H22.657a.616.616,0,0,0,0,1.233h1.824l2.86,11.454a.416.416,0,0,0-.086-.012H7.163A6.172,6.172,0,0,0,7.292,43.1H22.516a1.249,1.249,0,0,1,.851,2.164l-1.9,1.782a.645.645,0,0,1-.012.388c-.1.419-.678.592-.826,1.011-.234.666-.77,1.066-.838,1.72a1,1,0,0,0-.006.136l7.84-7.317L29.2,49.335a13.356,13.356,0,0,0-6.219,4.038,18.13,18.13,0,0,0,3.082-.413l-.4-.425a12.02,12.02,0,0,1,3.84-2l.678,2.725a1.659,1.659,0,0,1,.2.166c.062.062.129.129.2.191.4.388.832.832,1.288,1.282L30.7,50.236a11.954,11.954,0,0,1,4.487-.031l-1.233,6.559a8.96,8.96,0,0,0,1.116.74l1.319-7.009A12.14,12.14,0,0,1,40.8,52.88l-4.561,5.135a4.039,4.039,0,0,0,.536.142,3.75,3.75,0,0,0,.937.055L41.7,53.718a11.988,11.988,0,0,1,2.28,3.36c.487.117,1.029.3,1.516.45a14.154,14.154,0,0,0-.567-1.332" transform="translate(-2.748 -11.198)" fill="#d1dcc0"/>
      </g>
    </g>
  </g>
</svg>
